<?xml version="1.0" encoding="UTF-8"?>
<svg width="111.59" height="39.673" version="1.1" viewBox="0 0 111.59 39.673" xmlns="http://www.w3.org/2000/svg" xmlns:cc="http://creativecommons.org/ns#" xmlns:dc="http://purl.org/dc/elements/1.1/" xmlns:osb="http://www.openswatchbook.org/uri/2009/osb" xmlns:rdf="http://www.w3.org/1999/02/22-rdf-syntax-ns#" xmlns:xlink="http://www.w3.org/1999/xlink">
 <metadata>
  <rdf:RDF>
   <cc:Work rdf:about="">
    <dc:format>image/svg+xml</dc:format>
    <dc:type rdf:resource="http://purl.org/dc/dcmitype/StillImage"/>
    <dc:title/>
   </cc:Work>
  </rdf:RDF>
 </metadata>
 <defs>
  <linearGradient id="linearGradient857" x1="44.925" x2="109.59" y1="20.083" y2="20.083" gradientUnits="userSpaceOnUse">
   <stop stop-color="#ffd000" offset="0"/>
   <stop stop-color="#ffb306" offset=".626"/>
   <stop stop-color="#e68200" offset="1"/>
  </linearGradient>
 </defs>
 <g transform="matrix(.099377 -.011416 .011416 .099377 -22.856 -31.344)" stroke="#000">
  <path d="m209.69 378.77-31.176 74.435 21.93 226.31 36.922 61.769 284.98-3.473 38.034-67.977-22.965-229.93-49.072-67.804z" fill="#272747" stroke-width="1.1188"/>
  <g fill="#fff" stroke-linecap="round" stroke-linejoin="round">
   <path transform="matrix(.98352 -.18079 .092119 .99575 0 0)" d="m431.19 454.15h5.7626v363.31h-5.7626z" stroke-width=".99975"/>
   <path transform="matrix(.98352 -.18079 .092119 .99575 0 0)" d="m365.57 442.5h5.7626v363.31h-5.7626z" stroke-width=".99975"/>
   <path transform="matrix(.98368 -.17994 .09274 .99569 0 0)" d="m196.33 416.08h5.7611v362.23h-5.7611z" stroke-width=".99813"/>
   <path transform="matrix(.052753 .99861 -.99977 .02156 0 0)" d="m488.98-515.83h5.5923v360.11h-5.5923z" stroke-width=".98052"/>
   <path transform="matrix(.98352 -.18079 .092119 .99575 0 0)" d="m278.55 429.41h5.7829v364.58h-5.7829z" stroke-width="1.0033"/>
   <path transform="matrix(.05053 .99872 -.99973 .023406 0 0)" d="m645.44-526.08h5.7153v363.27h-5.7153z" stroke-width=".99558"/>
  </g>
 </g>
 <text x="44.146511" y="26.137629" fill="url(#linearGradient857)" font-family="sans-serif" font-size="16.081px" letter-spacing="0px" stroke-width=".40204" word-spacing="0px" style="line-height:1.25" xml:space="preserve"><tspan x="44.146511" y="26.137629" fill="url(#linearGradient857)" font-family="'Miriam Libre'" font-weight="bold" letter-spacing="-.8px" stroke-width=".40204" word-spacing="0px">SolarCell</tspan></text>
</svg>
