<?xml version="1.0" encoding="UTF-8" standalone="no"?>
<svg
   xmlns:dc="http://purl.org/dc/elements/1.1/"
   xmlns:cc="http://creativecommons.org/ns#"
   xmlns:rdf="http://www.w3.org/1999/02/22-rdf-syntax-ns#"
   xmlns:svg="http://www.w3.org/2000/svg"
   xmlns="http://www.w3.org/2000/svg"
   xmlns:sodipodi="http://sodipodi.sourceforge.net/DTD/sodipodi-0.dtd"
   xmlns:inkscape="http://www.inkscape.org/namespaces/inkscape"
   inkscape:version="1.0 (1.0+r73)"
   height="702.93469"
   width="691.5672"
   sodipodi:docname="logo.svg"
   xml:space="preserve"
   viewBox="0 0 691.5672 702.93469"
   y="0px"
   x="0px"
   id="Capa_1"
   version="1.1"><metadata
   id="metadata35"><rdf:RDF><cc:Work
       rdf:about=""><dc:format>image/svg+xml</dc:format><dc:type
         rdf:resource="http://purl.org/dc/dcmitype/StillImage" /><dc:title></dc:title></cc:Work></rdf:RDF></metadata><defs
   id="defs33" /><sodipodi:namedview
   inkscape:current-layer="Capa_1"
   inkscape:window-maximized="1"
   inkscape:window-y="0"
   inkscape:window-x="0"
   inkscape:cy="346.49015"
   inkscape:cx="618.57942"
   inkscape:zoom="0.47994873"
   fit-margin-bottom="0"
   fit-margin-right="0"
   fit-margin-left="0"
   fit-margin-top="0"
   showgrid="false"
   id="namedview31"
   inkscape:window-height="839"
   inkscape:window-width="1600"
   inkscape:pageshadow="2"
   inkscape:pageopacity="0"
   guidetolerance="10"
   gridtolerance="10"
   objecttolerance="10"
   borderopacity="1"
   bordercolor="#666666"
   pagecolor="#ffffff" />
<style
   id="style2"
   type="text/css">
	.st0{fill:#FEFEFE;}
	.st1{fill:#2E334D;}
	.st2{fill:#009E92;}
</style>
<g
   transform="translate(245.761,325.97532)"
   id="g28">
	<path
   id="path4"
   d="m 177,-237.1 c 0.4,-2.1 -0.5,-4 -1.4,-5.9 -2.9,-5.9 -9.3,-6.4 -14.2,-8.6 -22.7,-10.2 -45.8,-19.6 -68.7,-29.5 -22,-9.5 -44,-19.1 -66.1,-28.5 -3.1,-1.3 -6.2,-3 -9.9,-2.4 -5.4,0.9 -7.6,4.7 -9.5,9.3 -5.7,13.8 -12,27.3 -17.8,41 -3.6,8.4 -1.1,14.1 7,17.4 7,2.9 14,6 21,9 17.7,7.7 35.4,15.4 53.1,23 23.4,10.1 46.8,20 70.1,30.1 7,3 13.3,0.7 16.5,-6.4 5.5,-12.4 11.1,-24.9 16.2,-37.4 1.4,-3.5 4.2,-6.7 3.7,-11.1 z"
   class="st0" />
	<path
   id="path6"
   d="m -241.1,109.8 c -0.4,4 2.3,7.1 6.5,8.9 15.1,6.3 30.2,12.6 45.5,18.6 6.8,2.7 12.2,0.4 15,-6.3 7.8,-18.5 15.4,-37.2 23.1,-55.7 6.9,-16.6 13.9,-33.2 20.8,-49.8 5.8,-13.9 11.6,-27.9 17.1,-41.9 2.8,-7 0.9,-11.5 -6.2,-14.6 -13.9,-6.2 -28,-12.1 -42.1,-18 -4.6,-1.9 -9.2,-3.4 -13.9,0 -3.4,2.4 -4.1,6.2 -5.6,9.6 -9.7,23 -19.4,46 -29,69.1 -8.8,21.3 -17.6,42.6 -26.3,63.9 -1.9,4.9 -5,9.5 -4.9,16.2 z"
   class="st0" />
	<path
   id="path8"
   d="m 206.1,306.2 c 0.4,-3.7 -2.2,-7 -6.5,-8.8 -19.9,-8.4 -39.8,-16.6 -59.7,-24.9 -29.3,-12.3 -58.5,-24.6 -87.8,-36.9 -7.6,-3.2 -11.9,-1.7 -15.3,6 -6.1,13.9 -12.1,27.9 -17.8,42.1 -4.2,10.6 -2.2,14.6 8.2,18.9 17.7,7.3 35.3,14.6 52.9,22 30.5,12.8 61,25.7 91.4,38.5 5.8,2.5 11.8,0.4 14.3,-5.3 4.8,-10.8 9.6,-21.7 14,-32.7 2.4,-5.7 6.3,-11 6.3,-18.9 z"
   class="st0" />
	<path
   id="path10"
   d="m 434,-52.4 c 0.5,-4.6 -1.4,-7.9 -5.7,-9.8 -14.4,-6.3 -28.8,-12.6 -43.4,-18.7 -3.1,-1.3 -6.2,-2.9 -10.3,-1.6 -5.6,1.9 -6.9,6.4 -8.8,10.9 -7.2,16.9 -14.6,33.6 -21.8,50.5 -8,18.8 -15.9,37.6 -23.8,56.5 -5.1,12.3 -10.4,24.5 -15.2,36.9 -2.6,6.5 0.3,12.3 6.7,14.6 1.5,0.5 3,1.2 4.5,1.8 13,5.5 25.9,11.2 39,16.4 8,3.2 13.2,0.4 16.5,-7.4 6.9,-16.6 13.8,-33.2 20.9,-49.8 12.2,-28.6 24.7,-57.2 36.8,-85.9 1.9,-4.6 5.1,-8.9 4.6,-14.4 z"
   class="st0" />
	<path
   id="path12"
   d="m 380.5,-319 c 30.3,-0.3 56.1,20.5 63.3,48.8 8.9,35.4 -12.7,69.7 -47.2,78.2 -2.8,0.7 -4.4,2.3 -5.5,4.9 -8.3,19.6 -16.6,39.1 -24.9,58.6 -9.1,21.6 -18.2,43.3 -27.4,64.9 -9.8,23.1 -19.9,46.1 -29.7,69.2 -9.1,21.5 -18.1,43 -27.2,64.5 -2.5,6 -5.1,11.9 -7.9,17.8 -1.5,3.1 -1.3,4.8 2.3,6.2 17.2,7.1 34.3,14.5 51.4,21.9 9.2,4 18.5,7.8 27.6,12.1 9.4,4.5 14.4,16.6 10.8,26.7 -3.3,9.1 -7.1,18.1 -11,26.9 -4.5,10.1 -18.3,16.2 -31.2,10.7 -38.9,-16.9 -78,-33.4 -117.1,-50.1 -6,-2.6 -12.4,-4.4 -16.6,-9.9 -6.7,-8.8 -5.9,-17.8 -1.7,-27.5 14.2,-32.5 28,-65.2 41.9,-97.8 14.4,-34 28.7,-68 43.1,-102 12.2,-28.6 24.5,-57.2 36.7,-85.8 5,-11.8 9.8,-23.7 14.9,-35.4 1.1,-2.5 0.8,-4.3 -0.4,-6.4 -13.4,-24.2 -11.7,-48 3.9,-70.3 10,-14.2 24.2,-22.9 41.9,-25.4 3.6,-0.5 7,-0.5 10,-0.8 z m 35.5,64.5 c 0.4,-20.1 -16.1,-35.3 -34.1,-35.5 -20.9,-0.3 -36.8,15.8 -36.7,35.9 0.1,19.1 15.6,34.9 35.6,35 18.8,0 35.5,-14.7 35.2,-35.4 z"
   class="st1" />
	<path
   id="path14"
   d="m -80.1,-38 c -14.6,-6 -29.1,-12 -43.6,-18.1 -12.7,-5.3 -25.5,-10.4 -38.1,-16 -12.2,-5.4 -17,-17.9 -12,-30.5 3,-7.7 6.3,-15.3 9.6,-22.8 5,-11.4 17.2,-18.4 33.9,-11.3 32.6,13.9 65.4,27.4 98.1,41.1 8.1,3.4 16.4,6.2 24.3,9.8 12.3,5.4 17.1,18.6 12.5,30 -13,32.7 -26.7,65 -40.2,97.5 -11.9,28.7 -24,57.4 -35.9,86.1 -10.7,25.9 -21.3,51.9 -32,77.7 -8.5,20.5 -17.1,40.9 -25.7,61.4 -1.1,2.5 -0.9,4.2 0.8,6.6 6.6,9.5 10.4,19.9 11.4,31.7 1.4,16.2 -2.7,30.5 -12.1,43.5 -12.2,16.7 -28.6,25.5 -49.4,26.4 -18.9,0.8 -35.2,-5.2 -48.4,-18.5 -10.7,-10.8 -16.5,-24 -18.4,-39.4 -3.9,-31.2 17.5,-59.1 43.2,-67.5 2.5,-0.8 3.6,-2.4 4.4,-4.5 12.2,-29.8 24.4,-59.7 36.8,-89.4 11.2,-27.1 22.7,-54.1 33.9,-81.2 9.1,-21.8 18,-43.8 27,-65.6 6.6,-15.6 13.2,-31.1 19.9,-47 z m -65.8,348.8 c 0.5,-19.3 -14.6,-35.6 -35.6,-35.6 -18.9,0 -34.4,15.7 -34.8,35.6 -0.4,18.8 16.6,34.5 33,35.4 21.3,1.2 39.1,-18.1 37.4,-35.4 z"
   class="st1" />
	<path
   id="path16"
   d="m 441,312.4 c 1.4,31.2 -23.8,59.3 -53.5,63.7 -19.5,2.9 -36.5,-1.5 -51.8,-13.8 -12.4,-9.9 -19.3,-23.1 -22.5,-38.2 -0.6,-2.7 -1.8,-3.5 -3.7,-4.3 C 295.6,313.9 281.8,307.9 267.8,302 250,294.5 232.2,287.2 214.4,279.7 195,271.5 175.6,263.2 156.1,255 138.7,247.7 121.3,240.6 104,233.4 80.5,223.6 57,213.8 33.6,203.7 c -3.3,-1.4 -3.7,0.3 -4.5,2.2 -6.4,15.1 -12.7,30.2 -19,45.3 -4.7,11.1 -9.2,22.2 -14.2,33.1 -5.1,10.9 -16.5,16 -27.6,12.1 -9.9,-3.5 -19.9,-7 -28.9,-12.5 -9.2,-5.6 -13.5,-16 -8.6,-28 12.6,-31.1 25.9,-62 38.8,-92.9 4.7,-11.2 9,-22.6 13.9,-33.7 4.7,-10.6 18,-17.2 32.9,-10.7 26.6,11.5 53.6,22.4 80.3,33.7 26,10.9 52,22 78,32.9 28,11.7 56,23.3 84,35.1 24.4,10.2 48.7,20.6 73,31 2.5,1.1 5.2,2 7.5,3.4 5.3,3.1 9.5,-0.5 13.7,-2.3 29.2,-12.2 64.5,0.6 79.8,27.9 5.8,10.1 8.8,20.7 8.3,32.1 z m -29,-0.1 c 0.4,-19.5 -16.1,-35.1 -34,-35.2 -21.6,-0.1 -36.6,16.2 -36.8,34.9 -0.2,20.5 16.6,36 36.2,36 18.2,0 35.7,-16.5 34.6,-35.7 z"
   class="st2" />
	<path
   id="path18"
   d="m -245.1,-262.2 c -0.2,-31.2 23.5,-58.1 53.4,-62.8 20.1,-3.2 37.7,1.4 53.3,14.9 11.8,10.2 18.6,22.8 21.3,37.8 0.4,2.3 1.4,3.5 3.4,4.3 25.8,11.1 51.6,22.2 77.4,33.3 32.1,13.8 64.2,27.4 96.2,41.2 25.2,10.8 50.4,21.8 75.6,32.7 7.9,3.4 15.7,7.1 23.6,10.4 1.8,0.7 4.1,2.9 5.8,-1 6.6,-15.7 13.4,-31.4 20.1,-47 4.8,-11.2 9.4,-22.4 14.6,-33.5 4.2,-9 17.8,-14.4 27.3,-10.5 9,3.6 18,7.6 26.7,11.8 8.8,4.3 14.6,15.5 11.6,25.6 -1.6,5.5 -4,10.6 -6.2,15.8 -11.1,25.8 -22.3,51.5 -33.5,77.3 -5.1,11.8 -9.9,23.7 -15.3,35.3 -6.4,13.7 -18.2,18.1 -32,12.2 -22.9,-9.7 -45.6,-19.8 -68.4,-29.6 -27.4,-11.8 -54.9,-23.5 -82.3,-35.3 -20.4,-8.8 -40.8,-17.8 -61.2,-26.6 -22.8,-9.8 -45.7,-19.4 -68.5,-29.2 -13.4,-5.8 -26.8,-11.7 -40.1,-17.7 -3.7,-1.7 -6.9,-2 -11,-0.2 -23.8,10.4 -46.5,7.9 -67.2,-8.1 -16.7,-12.9 -24.3,-30.3 -24.6,-51.1 z m 64.5,-34.8 c -18.9,-0.3 -35.1,15.7 -35.4,34.4 -0.3,20.7 16.8,36.3 35.2,36.5 19.6,0.2 35.8,-16.2 35.9,-35.3 0,-19 -16.4,-36.3 -35.7,-35.6 z"
   class="st2" />
	<path
   id="path20"
   d="m 177,-237.1 c 0.6,4.4 -2.2,7.6 -3.7,11.2 -5.2,12.6 -10.7,25 -16.2,37.4 -3.1,7.1 -9.5,9.4 -16.5,6.4 -23.3,-10.1 -46.7,-20.1 -70.1,-30.1 -17.7,-7.6 -35.4,-15.3 -53.1,-23 -7,-3 -14,-6.1 -21,-9 -8.2,-3.4 -10.6,-9 -7,-17.4 5.9,-13.7 12.1,-27.3 17.8,-41 1.9,-4.6 4,-8.4 9.5,-9.3 3.7,-0.6 6.8,1.1 9.9,2.4 22.1,9.4 44,19.1 66.1,28.5 22.9,9.8 46,19.3 68.7,29.5 4.9,2.2 11.4,2.7 14.2,8.6 0.9,1.8 1.8,3.7 1.4,5.8 z"
   class="st1" />
	<path
   id="path22"
   d="m -241.1,109.8 c -0.1,-6.7 3,-11.3 5,-16.2 8.6,-21.3 17.4,-42.6 26.3,-63.9 9.6,-23.1 19.3,-46.1 29,-69.1 1.4,-3.4 2.2,-7.1 5.6,-9.6 4.8,-3.4 9.4,-1.9 13.9,0 14.1,5.9 28.1,11.8 42.1,18 7,3.1 8.9,7.6 6.2,14.6 -5.5,14 -11.3,28 -17.1,41.9 -6.9,16.6 -13.9,33.2 -20.8,49.8 -7.7,18.6 -15.3,37.2 -23.1,55.7 -2.8,6.7 -8.2,9 -15,6.3 -15.2,-6.1 -30.4,-12.3 -45.5,-18.6 -4.3,-1.7 -7,-4.9 -6.6,-8.9 z"
   class="st2" />
	<path
   id="path24"
   d="m 206.1,306.2 c 0,7.9 -3.9,13.3 -6.2,19.1 -4.4,11 -9.1,21.8 -14,32.7 -2.5,5.7 -8.5,7.7 -14.3,5.3 -30.5,-12.8 -60.9,-25.7 -91.4,-38.5 -17.6,-7.4 -35.3,-14.7 -52.9,-22 -10.4,-4.3 -12.5,-8.4 -8.2,-18.9 5.7,-14.1 11.7,-28.1 17.8,-42.1 3.4,-7.7 7.7,-9.2 15.3,-6 29.3,12.3 58.5,24.6 87.8,36.9 19.9,8.3 39.8,16.5 59.7,24.9 4.2,1.6 6.8,4.8 6.4,8.6 z"
   class="st1" />
	<path
   id="path26"
   d="m 434,-52.4 c 0.5,5.5 -2.6,9.8 -4.6,14.3 -12.1,28.7 -24.5,57.3 -36.8,85.9 -7.1,16.6 -14,33.2 -20.9,49.8 -3.2,7.8 -8.4,10.5 -16.5,7.4 -13.1,-5.2 -26,-10.9 -39,-16.4 -1.5,-0.6 -3,-1.3 -4.5,-1.8 -6.5,-2.3 -9.3,-8 -6.7,-14.6 4.9,-12.4 10.1,-24.6 15.2,-36.9 7.9,-18.8 15.8,-37.7 23.8,-56.5 7.2,-16.9 14.6,-33.6 21.8,-50.5 1.9,-4.5 3.2,-9 8.8,-10.9 4.1,-1.4 7.1,0.3 10.3,1.6 14.5,6 28.9,12.4 43.4,18.7 4.3,1.9 6.2,5.3 5.7,9.9 z"
   class="st2" />
</g>
</svg>
